<?xml version="1.0" standalone="no"?><!DOCTYPE svg PUBLIC "-//W3C//DTD SVG 1.1//EN" "http://www.w3.org/Graphics/SVG/1.1/DTD/svg11.dtd"><svg t="1702051653353" class="icon" viewBox="0 0 1024 1024" version="1.1" xmlns="http://www.w3.org/2000/svg" p-id="4574" xmlns:xlink="http://www.w3.org/1999/xlink" width="36" height="36"><path d="M808.448 442.88c-31.232-140.288-152.576-240.64-296.96-240.64S245.76 302.592 212.48 440.832c-90.112 20.992-156.672 100.352-156.672 194.56 0 110.592 85.504 198.656 196.608 198.656h106.496l303.104 2.048h106.496c108.544 0 196.608-90.112 196.608-198.656 0-94.208-66.56-175.616-156.672-194.56zM510.464 730.624L368.128 588.288H478.72V477.184c0-17.408 14.336-31.744 31.744-31.744s31.744 14.336 31.744 31.744v110.592H652.8L510.464 730.624z" p-id="4575"></path></svg>