<svg data-v-00eb841b="" width="16" height="16" viewBox="0 0 16 16" fill="none" xmlns="http://www.w3.org/2000/svg" class="svg"><path data-v-00eb841b="" fill-rule="evenodd" clip-rule="evenodd" d="M14.2222 2C14.6518 2 15 2.29848 15 2.66667V13.3333C15 13.7015 14.6518 14 14.2222 14H1.77778C1.34822 14 1 13.7015 1 13.3333V2.66667C1 2.29848 1.34822 2 1.77778 2H14.2222ZM8.33333 10C8.51743 10 8.66667 10.1492 8.66667 10.3333V11C8.66667 11.1841 8.51743 11.3333 8.33333 11.3333H3.66667C3.48257 11.3333 3.33333 11.1841 3.33333 11V10.3333C3.33333 10.1492 3.48257 10 3.66667 10H8.33333ZM6 7.33333C6.18409 7.33333 6.33333 7.48257 6.33333 7.66667V8.33333C6.33333 8.51743 6.18409 8.66667 6 8.66667H3.66667C3.48257 8.66667 3.33333 8.51743 3.33333 8.33333V7.66667C3.33333 7.48257 3.48257 7.33333 3.66667 7.33333H6ZM12.2273 4.3335C12.3779 4.3335 12.5 4.4556 12.5 4.60622V7.60622C12.5 7.75685 12.3779 7.87895 12.2273 7.87895H9.77273C9.6221 7.87895 9.5 7.75685 9.5 7.60622V4.60622C9.5 4.4556 9.6221 4.3335 9.77273 4.3335H12.2273Z" fill="#ffffff" class="close-path"></path></svg>