<svg fill="none" xmlns="http://www.w3.org/2000/svg" viewBox="280 0 1180 280" aria-hidden="true">
<g fill="#fff">
<path d="m367.44 153.84c0 52.32 33.6 88.8 80.16 88.8s80.16-36.48 80.16-88.8-33.6-88.8-80.16-88.8-80.16 36.48-80.16 88.8zm129.6 0c0 37.44-20.4 61.68-49.44 61.68s-49.44-24.24-49.44-61.68 20.4-61.68 49.44-61.68 49.44 24.24 49.44 61.68z"></path><path d="m614.27 242.64c35.28 0 55.44-29.76 55.44-65.52s-20.16-65.52-55.44-65.52c-16.32 0-28.32 6.48-36.24 15.84v-13.44h-28.8v169.2h28.8v-56.4c7.92 9.36 19.92 15.84 36.24 15.84zm-36.96-69.12c0-23.76 13.44-36.72 31.2-36.72 20.88 0 32.16 16.32 32.16 40.32s-11.28 40.32-32.16 40.32c-17.76 0-31.2-13.2-31.2-36.48z"></path><path d="m747.65 242.64c25.2 0 45.12-13.2 54-35.28l-24.72-9.36c-3.84 12.96-15.12 20.16-29.28 20.16-18.48 0-31.44-13.2-33.6-34.8h88.32v-9.6c0-34.56-19.44-62.16-55.92-62.16s-60 28.56-60 65.52c0 38.88 25.2 65.52 61.2 65.52zm-1.44-106.8c18.24 0 26.88 12 27.12 25.92h-57.84c4.32-17.04 15.84-25.92 30.72-25.92z"></path><path d="m823.98 240h28.8v-73.92c0-18 13.2-27.6 26.16-27.6 15.84 0 22.08 11.28 22.08 26.88v74.64h28.8v-83.04c0-27.12-15.84-45.36-42.24-45.36-16.32 0-27.6 7.44-34.8 15.84v-13.44h-28.8z"></path><path d="m1014.17 67.68-65.28 172.32h30.48l14.64-39.36h74.4l14.88 39.36h30.96l-65.28-172.32zm16.8 34.08 27.36 72h-54.24z"></path><path d="m1163.69 68.18h-30.72v172.32h30.72z"></path></g></svg>