<svg xmlns="http://www.w3.org/2000/svg" xml:space="preserve" width="36" height="80" version="1.1"
 style="transform: scale(0.8);shape-rendering:geometricPrecision; text-rendering:geometricPrecision; image-rendering:optimizeQuality; fill-rule:evenodd; clip-rule:evenodd" viewBox="0 0 6913 3093" xmlns:xlink="http://www.w3.org/1999/xlink"><defs>
 </defs>
 <g id="图层_x0020_1">
 <metadata id="CorelCorpID_0Corel-Layer"></metadata>
<g id="_1999698033360">
<path class="fil0" d="M6171 645c0,-468 247,-645 742,-645 0,518 -241,645 -742,645zm700 2041l0 -1971c-180,0 -700,103 -700,393l0 1982c312,0 700,3 700,-404z"></path><path class="fil0" d="M4274 2013l0 727c0,322 -536,353 -742,353l0 -1317c0,-221 155,-315 362,-315l897 0c330,0 483,-210 483,-478 0,-268 -185,-431 -469,-431l-881 0c-380,0 -392,-208 -392,-552l1325 0c653,0 1140,337 1140,1006 0,669 -423,1007 -1043,1007l-680 0z"></path><path class="fil0" d="M2079 1473l-80 297c-27,103 -61,133 -180,133l-508 0 73 -272c26,-96 56,-158 176,-158l519 0zm-377 -1473l189 0c304,0 584,127 756,687l743 2406 -389 0c-284,0 -485,-65 -637,-631l-154 -574c22,10 49,15 85,15l519 0 -80 -297c-27,-103 -61,-133 -180,-133l-456 0 -396 -1473zm-14 0l-189 0c-304,0 -584,127 -756,687l-743 2406 389 0c284,0 485,-65 637,-631l662 -2462z">
</path></g></g>
</svg>