<svg t="1696237939651" class="icon" style="width: 1em;height: 1em;vertical-align: middle;fill: #FFF;overflow: hidden;" viewBox="0 0 1024 1024" version="1.1" xmlns="http://www.w3.org/2000/svg" p-id="6219" data-spm-anchor-id="a313x.search_index.0.i10.34103a81tjtSWT"><path d="M672.299893 374.246613c-30.004361-6.185886-61.073984-9.064446-91.749634-9.685593-41.186028-0.835018-41.774429 0.635473-46.343491 40.450271-5.634324 49.097208-10.223852 98.314143-15.640212 151.144372 31.054273 0.64673 60.628846 2.199085 90.162486 1.626034 32.461319-0.629333 63.944358-6.411013 90.443895-27.424606 29.843702-23.666002 39.58967-55.474452 34.120099-91.764983C728.039381 403.724994 705.951317 381.184629 672.299893 374.246613zM657.900951 500.909407c-23.899316 18.074657-51.306526 20.665669-82.688257 16.613376 3.77907-38.039361 7.468089-75.166957 11.500938-115.768677 18.166755 1.276063 34.453696 1.294482 50.341548 3.818979 20.170388 3.204995 36.021401 13.485129 40.776705 34.985816C683.099866 464.37533 678.124552 485.615073 657.900951 500.909407zM503.672334 369.780905c-1.798972 13.027711-3.473101 25.15082-5.205559 37.702694-25.127284-2.170432-49.036833-5.149277-73.019037-5.934153-12.665461-0.414439-25.856901 1.651616-38.011732 5.276167-5.569856 1.660826-9.213849 9.779737-13.731746 14.969946 4.811586 4.14132 8.978489 10.243295 14.548344 12.07092 20.290115 6.65763 41.37534 10.943236 61.541635 17.912975 21.155832 7.312546 42.117237 17.118889 43.12417 43.801599 1.025353 27.151383-17.099447 42.173518-39.515992 51.339272-49.971112 20.434401-101.250008 18.301831-152.551418 5.27412-2.898003-0.735757-6.615675-6.172583-6.522554-9.320273 0.313132-10.570753 2.179642-21.095457 3.244904-29.927613 30.601972 2.39556 60.002582 5.354961 89.476871 6.611581 9.122775 0.388856 19.11229-2.468215 27.425629-6.486738 5.1503-2.489704 10.989285-10.093892 10.780531-15.165398-0.184195-4.474918-7.630794-10.624988-13.091156-12.520151-13.767562-4.780887-28.474518-6.819313-42.334177-11.387351-13.833053-4.558829-27.958772-9.378601-40.431851-16.687054-29.591969-17.339924-31.312146-47.346331-4.841262-69.316715 20.354584-16.893762 44.992727-22.240537 70.433142-25.527396C426.702312 358.37104 479.267505 361.432773 503.672334 369.780905zM959.473381 445.082938c-2.599198 35.797297-7.000438 71.464635-10.664897 107.833961-19.322068 0-37.140898 0-57.091276 0 3.668553-34.127262 6.729262-67.476811 10.968819-100.67491 4.237511-33.18275-7.367805-47.762817-40.654932-48.962132-40.755216-1.468444-40.883129-1.482771-45.26595 38.807864-3.950985 36.326347-7.580652 72.687486-11.507078 110.530372-19.435655 0-37.172621 0-55.32812 0 5.699816-58.20361 11.107989-115.27749 17.277502-172.269505 0.410346-3.78828 6.15007-9.250688 10.17985-10.045797 38.780235-7.6574 77.796854-12.57848 117.373221-6.016017C941.27081 371.999432 962.885084 398.084531 959.473381 445.082938zM251.989151 359.040283c11.636015 0.905626 23.165606 3.169179 35.938514 4.976338-1.662873 15.230889-3.163039 28.963659-4.333702 39.687908-30.569226 0-58.112536-1.639337-85.379553 0.411369-34.80469 2.616594-56.879452 20.388353-63.36926 46.690392-8.036024 32.567743 5.16258 57.6807 38.144762 63.129806 25.119097 4.149507 51.359738 1.601474 77.102029 1.802042 4.854565 0.037862 9.718339-1.010003 13.933337-1.483794 1.093914 1.38044 1.75804 1.827625 1.74883 2.260483-0.845251 41.947368-0.855484 43.796482-42.837644 43.626613-31.178093-0.125867-63.113433-2.62171-93.28971-9.93221-33.339316-8.077979-58.892295-29.67588-64.336284-66.284659-5.77554-38.832424 10.547217-69.608358 41.553395-91.998297C150.319587 360.548636 200.264093 355.014596 251.989151 359.040283z" p-id="6220"></path></svg>