<svg version="1.1" id="Layer_1" xmlns="http://www.w3.org/2000/svg" xmlns:xlink="http://www.w3.org/1999/xlink" x="0" y="0" viewBox="0 0 120 71" xml:space="preserve"><style>.st0{fill:#ffe399}.st4{fill:#5a4539}.st5{fill:#ffc733}.st7{fill:#bf8f67}.st9{fill:#3a312e}.st15{fill:#28c2d1}.st24{fill:#fff}.st26{fill:#f6f6f6}</style><switch><g><path class="st0" d="M3.9 6.6c1 0 1.8-1.2 1.8-2.7 0-.5.4-.9.9-.9s.9.4.9.9c0 1.5.8 2.7 1.8 2.7.5 0 .9.4.9.9s-.4.9-.9.9c-1 0-1.8 1.2-1.8 2.7 0 .5-.4.9-.9.9s-.9-.4-.9-1c0-1.5-.8-2.7-1.8-2.7-.5.1-.9-.3-.9-.8s.4-.9.9-.9zm64 1.1C68.5 7.7 69 7 69 6c0-.3.2-.6.6-.6s.6.2.6.6c0 .9.5 1.7 1.1 1.7.3 0 .6.2.6.6 0 .3-.2.6-.6.6-.6 0-1.1.7-1.1 1.7 0 .3-.2.6-.6.6s-.6-.2-.6-.6c0-.9-.5-1.7-1.1-1.7-.3 0-.6-.2-.6-.6.1-.4.3-.6.6-.6zM110.1 3c.3 0 .6-.4.6-.9 0-.2.1-.3.3-.3s.3.1.3.3c0 .5.3.9.6.9.2 0 .3.1.3.3s-.1.3-.3.3c-.3 0-.6.4-.6.9 0 .2-.1.3-.3.3s-.3-.1-.3-.3c0-.5-.3-.9-.6-.9-.2 0-.3-.1-.3-.3s.1-.3.3-.3zm6.4 3.3c-.5 0-.9-.6-.9-1.3 0-.2-.2-.4-.4-.4s-.4.2-.4.4c0 .7-.4 1.3-.9 1.3-.2 0-.4.2-.4.4s.2.4.4.4c.5 0 .9.6.9 1.3 0 .2.2.4.4.4s.4-.2.4-.4c0-.7.4-1.3.9-1.3.2 0 .4-.2.4-.4s-.2-.4-.4-.4z"/><path d="M34.2 70c16 0 29-13 29-29s-13-29-29-29-29 13-29 29c0 16.1 13 29 29 29z" fill="#c7e0f4"/><defs><path id="SVGID_7_" d="M34.2 70c16 0 29-13 29-29s-13-29-29-29-29 13-29 29c0 16.1 13 29 29 29z"/></defs><clipPath id="SVGID_1_"><use xlink:href="#SVGID_7_" overflow="visible"/></clipPath><radialGradient id="SVGID_3_" cx="-2351.43" cy="2133.576" r=".3" gradientTransform="matrix(36.9885 1.5011 1.5311 -37.7402 83746.43 84100.258)" gradientUnits="userSpaceOnUse"><stop offset=".06" stop-color="#c8c6c4"/><stop offset=".913" stop-color="#fff"/></radialGradient><path d="M54.4 61.9c-.2-2.1-.6-4.3-1-6.6-.7-3.6-5.2-18.8-10.5-23.7-1.7-1.6-3.4-2.5-5.1-1.7-2.5 1.1-3.2 5.4-1.6 7.6 0 0 7.5 12.8 11.2 22.4.8 2.1 1.4 3.9 2 5.9 1.7-1.2 3.4-2.4 5-3.9z" clip-path="url(#SVGID_1_)" fill="url(#SVGID_3_)"/><defs><path id="SVGID_10_" d="M34.2 70c16 0 29-13 29-29s-13-29-29-29-29 13-29 29c0 16.1 13 29 29 29z"/></defs><clipPath id="SVGID_4_"><use xlink:href="#SVGID_10_" overflow="visible"/></clipPath><radialGradient id="SVGID_5_" cx="-2468.996" cy="2246.71" r=".301" gradientTransform="matrix(-48.3564 -4.9262 -4.8641 48.7677 -108444.89 -121681.398)" gradientUnits="userSpaceOnUse"><stop offset=".06" stop-color="#c8c6c4"/><stop offset=".913" stop-color="#fff"/></radialGradient><path d="M44.8 44c.9-2.9 1-4.5.8-6.1-.2-3.1-1.4-5.7-4.7-7.5h-.1c-2.1-1.2-4.6-1.9-7.3-1.9-2.5 0-4.2.1-6.7 1.4 0 0-7.7 3.9-6.7 10.2.4 2.4 1.3 4.1 1.8 7.2 1.1 6.9-.9 14.9-2.3 19.4 3.4 2 7.4 3.3 11.3 3.7 1.7.2 2.2.2 3.2.2 1.1 0 2.2-.1 3.2-.2 3.5-.4 6.9-1.5 9.9-3C45.8 61.9 43 51 44.8 44z" clip-path="url(#SVGID_4_)" fill="url(#SVGID_5_)"/><path class="st4" d="M25.3 13.7c0 2.4.8 4.6 2.1 6.3.4.6.9.1 1.4.6.4.3.8 1.6 1.2 1.9 1.5.9 3.2 1.4 5 1.4 5.3-.1 9.6-4.8 9.5-10.6-.1-5.7-2.3-10.2-9.8-10.2-7.3 0-9.5 4.9-9.4 10.6z"/><path class="st5" d="M42.2 25.4c-1.3 0-2.3-1-2.3-2.3s1-2.3 2.3-2.3c1.3 0 2.3 1 2.3 2.3s-1 2.3-2.3 2.3zm0-4.1c-1 0-1.8.8-1.8 1.8s.8 1.8 1.8 1.8 1.8-.8 1.8-1.8-.8-1.8-1.8-1.8z"/><path class="st4" d="M28.9 6.7c1-5.7 7.5-6.7 11.7-5 3.6 1.5 5.6 5.1 6.7 2.5 0 0 2.8 2.9 2 6.2-.8 3.3-3.8 4.4-6.5 3.3C41 13 39.3 10 35.9 8c-2.9-1.5-7-1.3-7-1.3z"/><radialGradient id="SVGID_6_" cx="-2537.74" cy="2348.577" r=".301" gradientTransform="matrix(-18.1027 0 0 18.1027 -45906.129 -42495.05)" gradientUnits="userSpaceOnUse"><stop offset="0" stop-color="#9b643d"/><stop offset=".892" stop-color="#ba8a63"/><stop offset="1" stop-color="#bf8f67"/></radialGradient><path d="M30.7 26.7v-6.3h6v6.2c.1 1.4.2 1.9 1.6 2.6 1.8.9-1.8 1.1-4.5 1.1-2.8 0-6.5-.6-5-1.2 1.2-.4 2-.7 1.9-2.4z" fill="url(#SVGID_6_)"/><path class="st7" d="M28 16.4c0 5.7 3.4 10.2 7.5 10.2S43 22 43 16.4s-3.4-9.7-7.5-9.7c-4.2 0-7.5 4.1-7.5 9.7z"/><path class="st5" d="M28.7 25.4c-1.3 0-2.3-1-2.3-2.3s1-2.3 2.3-2.3c1.3 0 2.3 1 2.3 2.3s-1 2.3-2.3 2.3zm0-4.1c-1 0-1.8.8-1.8 1.8s.8 1.8 1.8 1.8 1.8-.8 1.8-1.8-.8-1.8-1.8-1.8z"/><path class="st7" d="M27.6 29.5c2.1 1.1 4.9 1.8 8.1 1.8 2.1 0 3.6-.7 4.4-1.4-2.3-1.3-3.9-1.8-6.5-1.8-2.3 0-3.7.2-6 1.4z"/><path class="st4" d="M27.4 8.4s4.5-2.3 8.3-2.3 7.4 2.3 7.4 2.3l.4 8-.2.2-.4-5.9c-.1-.5-.5-.8-1-.8H31.2c-.4 0-.9.3-1 .8L29 16.6l-1 .1-.6-8.3z"/><path class="st7" d="M31.9 20.9H29c-1.2 0-2.2-1-2.2-2.2 0-1.2 1-2.2 2.2-2.2h2.9v4.4z"/><radialGradient id="SVGID_8_" cx="-2171.279" cy="1878.822" r=".301" gradientTransform="matrix(8.741 0 0 -8.741 19017.602 16442.03)" gradientUnits="userSpaceOnUse"><stop offset="0" stop-color="#9b643d"/><stop offset="1" stop-color="#bf8f67"/></radialGradient><path d="M38.5 21.9c1.4 0 2.6-1.2 2.6-2.6s-1.2-2.6-2.6-2.6c-1.4 0-2.6 1.2-2.6 2.6s1.2 2.6 2.6 2.6z" fill="url(#SVGID_8_)"/><path class="st7" d="M37.9 11.8l.2 3c0 1.6.9 3 1.4 3.7.3.4.2.9-.1 1.2-.6.5-1.3 1.3-1.3 2.1l.1 1.8-5.3-.4-.2-11.4h5.2z"/><path class="st9" d="M35.1 17c0-.6-.3-1.1-.6-1.1-.4 0-.6.5-.7 1.1 0 .6.3 1.1.6 1.1.4-.1.7-.5.7-1.1z"/><path d="M39.1 23c-.4.6-1.2.9-2 .7-.4-.1-.7-.3-1-.5-.3-.3-.5-.6-.5-.9 0-.1.1-.3.2-.3h.1c.3.1.5.3.8.3s.4.1.6.2c.2.1.4.1.7.1h.8c.1 0 .3.1.3.3.1 0 .1.1 0 .1z" fill="#9b643d"/><path class="st9" d="M41.3 17c0-.6-.3-1.1-.6-1.1-.4 0-.6.5-.7 1.1 0 .6.3 1.1.6 1.1.4-.1.6-.5.7-1.1z"/><path class="st24" d="M26.1 43.4c-2.5 4-3.7 7.1-5.1 14.8-.1.6-6.2 0-5.8-4.2.3-3.4 2.5-13.3 6.3-19.3 1-1.6 3.1-4.6 4.5-2.6 1.9 2.8 1.6 9 .1 11.3z"/><path class="st7" d="M38.6 45.1h-.1c.5-1.6-.6-1.7-.6-1.7 0 .2-.2.4-.3.6-.2.3-.5.5-.7.7-.3.3-.6.5-.9.7-.3.3-.6.5-.9.7l-.1.1-.3.3c-.3.3-.6.7-.9 1-.4.4-.7.9-1.1 1.3-.1.1-.3.4-.4.5-.1.3.3.3.5.5l.9 1.2 2-1 2.8-.7 1.4.2c.3 0 .7-.4.8-.7l.4-1.1c.1-.2.1-.5-.1-.7l-.7-1 1.6-.4c.7-.2 1.2-.8 1.2-1.5V44l-4.5 1.1z"/><path class="st24" d="M22.5 48.6c.5.2-.4 2.6 1 2.6 3.1-.1 6-.8 9.2-2.3l1.6 2c-1.2.9-7.3 9.3-15.6 7.2-2.6-.7-1.7-12 3.8-9.5z"/><path d="M80.1 31.7l4.7 9.7-7.3 3.6.6 1.2c.3.7.5 1.4.5 2.1 0 .7-.1 1.4-.3 2-.2.7-.6 1.3-1.1 1.8s-1 1-1.7 1.3c-.7.3-1.4.5-2.1.5-.7 0-1.4-.1-2-.3-.7-.2-1.3-.6-1.8-1.1-.5-.5-1-1-1.3-1.7l-.6-1.2-7.3 3.5-3.5-7.3-1.2.6c-.7.3-1.4.5-2.1.5-.7 0-1.4-.1-2-.3s-1.3-.6-1.8-1.1c-.5-.5-1-1-1.3-1.7-.3-.7-.5-1.4-.5-2.1 0-.7.1-1.4.3-2 .2-.7.6-1.3 1.1-1.8s1-1 1.7-1.3l1.2-.6-3.5-7.3 7.3-3.5-.6-1.2c-.3-.7-.5-1.4-.5-2.1 0-.7.1-1.4.3-2 .2-.7.6-1.3 1.1-1.8.5-.5 1-1 1.7-1.3.7-.3 1.4-.5 2.1-.5.7 0 1.4.1 2 .3s1.3.6 1.8 1.1c.5.5 1 1 1.3 1.7l.6 1.2 7.3-3.5 4.7 9.7-3.6 1.8c-.3.1-.6.4-.9.6-.2.3-.4.6-.5.9-.1.3-.2.7-.1 1 0 .4.1.7.3 1 .1.3.4.6.7.9s.6.4.9.5c.3.1.7.2 1 .1s.7-.1 1-.3l3.4-1.6z" fill="#3e8eed"/><path class="st15" d="M89.2 54.7c.5 5.4 5.2 9.4 10.6 9 5.4-.5 9.4-5.2 9-10.6-.5-5.4-5.2-9.4-10.6-9-5.4.4-9.4 5.2-9 10.6"/><path class="st26" d="M94.9 50.3h8.2c.4 0 .8.4.8.8v6.5c0 .4-.4.8-.8.8h-8.3c-.4 0-.8-.4-.8-.8v-6.5c.1-.4.5-.8.9-.8z"/><path transform="rotate(-89.813 101.824 53.506)" class="st15" d="M101.1 52.8h1.4v1.4h-1.4z"/><path transform="rotate(-89.816 101.816 56.103)" class="st15" d="M101.1 55.4h1.4v1.4h-1.4z"/><path transform="rotate(-89.813 99.022 53.497)" class="st15" d="M98.3 52.8h1.4v1.4h-1.4z"/><path transform="rotate(-89.816 99.014 56.094)" class="st15" d="M98.3 55.4h1.4v1.4h-1.4z"/><path transform="rotate(-89.813 96.22 53.488)" class="st15" d="M95.5 52.8h1.4v1.4h-1.4z"/><path transform="rotate(-89.816 96.211 56.086)" class="st15" d="M95.5 55.4h1.4v1.4h-1.4z"/><path class="st26" d="M102.1 51.1c0 .2.2.4.4.4s.4-.2.4-.4v-1.5c0-.2-.2-.4-.4-.4s-.4.2-.4.4v1.5z"/><path class="st15" d="M102.1 51.1v-.7h.8v.7c0 .2-.2.4-.4.4s-.4-.2-.4-.4z"/><path class="st26" d="M99.8 51.1c0 .2.2.4.4.4s.4-.2.4-.4v-1.5c0-.2-.2-.4-.4-.4s-.4.2-.4.4v1.5z"/><path class="st15" d="M99.8 51.1v-.7h.8v.7c0 .2-.2.4-.4.4s-.4-.2-.4-.4z"/><path class="st26" d="M97.5 51.1c0 .2.2.4.4.4s.4-.2.4-.4v-1.5c0-.2-.2-.4-.4-.4s-.4.2-.4.4v1.5z"/><path class="st15" d="M97.5 51.1v-.7h.8v.7c0 .2-.2.4-.4.4s-.4-.2-.4-.4z"/><path class="st26" d="M95.2 51.1c0 .2.2.4.4.4s.4-.2.4-.4v-1.5c0-.2-.2-.4-.4-.4s-.4.2-.4.4v1.5z"/><path class="st15" d="M95.2 51.1v-.7h.8v.7c0 .2-.2.4-.4.4-.3 0-.4-.2-.4-.4z"/><path d="M92.3 27.5c.9 5.9 6.5 9.9 12.5 9 6-.9 10-6.5 9.1-12.4s-6.5-9.9-12.5-9c-5.9.9-10 6.5-9.1 12.4" fill="#e76750"/><path class="st26" d="M99 23.3c0-2.2 1.8-4.1 4.1-4.1s4.1 1.8 4.1 4v2h-1.6v-2c0-1.3-1.1-2.4-2.5-2.4-1.3 0-2.5 1.1-2.4 2.4v2h-1.6l-.1-1.9z"/><path class="st26" d="M98.2 25.8v5.7c0 .4.4.8.8.8h8.2c.4 0 .8-.4.8-.8v-5.7c0-.4-.4-.8-.8-.8H99c-.4 0-.8.3-.8.8zm4.2 3c-.3-.2-.5-.6-.5-1 0-.7.6-1.3 1.4-1.2.6.1 1 .5 1.1 1 .1.5-.1.9-.5 1.2l.5 1.4v.1c0 .2-.2.3-.3.3h-1.8c-.2 0-.3-.2-.3-.3v-.1l.4-1.4z"/><circle transform="rotate(-8.996 79.205 64.864)" cx="79.2" cy="64.9" fill="#4a78b0" r="5.5"/><path class="st26" d="M81.3 64.8v.2l.7.5-.4 1.1-.8-.2-.1.1.2.8-1.1.4-.4-.7h-.2l-.5.7-1.1-.4.2-.8-.1-.1-.8.2-.4-1.1.7-.4v-.2l-.7-.5.5-1.1.8.2.1-.1-.2-.8 1.1-.4.4.7h.2l.5-.7 1.1.5-.2.8.1.1.8-.2.4 1.1-.8.3zm-2.1 1.1c.1 0 .3 0 .4-.1.1-.1.2-.1.3-.2.1-.1.2-.2.2-.3.1-.1.1-.3.1-.4 0-.1 0-.3-.1-.4s-.1-.2-.2-.3c-.1-.1-.2-.2-.3-.2-.1-.1-.3-.1-.4-.1-.1 0-.3 0-.4.1s-.2.1-.3.2-.2.2-.2.3-.1.3-.1.4 0 .3.1.4c.1.1.1.2.2.3.1.1.2.2.3.2s.3.1.4.1z"/><circle transform="rotate(-9.648 84.896 7.754)" cx="84.9" cy="7.8" fill="#f7b548" r="7.1"/><path class="st26" d="M86.3 8.9h.9l.1-.1s0-.1.1-.1l.9-2.7c0-.1 0-.2-.2-.3l-6 .1-.3-.9h-.9c-.1 0-.3.1-.3.2s.1.2.3.2h.6L83 9.9c-.1.1-.2.1-.3.3-.1.1-.1.2-.1.4 0 .1 0 .2.1.3 0 .1.1.2.1.2.1.1.1.1.2.1s.2.1.3.1c.1 0 .2 0 .3-.1.1 0 .2-.1.2-.1s.1-.1.1-.2.1-.2.1-.3v-.2h1.9v.2c0 .1 0 .2.1.3 0 .1.1.2.1.2.1.1.1.1.2.1s.2.1.3.1c.1 0 .2 0 .3-.1.1 0 .2-.1.2-.1.1-.1.1-.1.1-.2s.1-.2.1-.3c0-.1 0-.2-.1-.3 0-.1-.1-.2-.1-.2-.1-.1-.1-.1-.2-.1s-.2-.1-.3-.1h-3l-.3-.9 3-.1zm0 1.4s.1-.1.2-.1.1 0 .2.1c0 0 .1.1.1.2s0 .1-.1.2c0 0-.1.1-.2.1s-.1 0-.2-.1c0 0-.1-.1-.1-.2.1-.1.1-.2.1-.2zm-3.2 0s.1-.1.2-.1.1 0 .2.1c0 0 .1.1.1.2s0 .1-.1.2c0 0-.1.1-.2.1s-.1 0-.2-.1c0 0-.1-.1-.1-.2.1-.1.1-.1.1-.2z"/><path class="st0" d="M93.2 65.7c0 .1-.1.2-.2.2-.3 0-.5.3-.5.7 0 .1-.1.2-.2.2s-.2-.1-.2-.2c0-.4-.2-.7-.5-.7-.1 0-.2-.1-.2-.2s.1-.2.2-.2c.3 0 .5-.3.5-.7 0-.1.1-.2.2-.2s.2.1.2.2c0 .4.2.7.5.7.1 0 .2.1.2.2zm-5.5 2.7c0 .2.2.3.3.3.4 0 .7.5.7 1 0 .2.2.3.3.3s.3-.2.3-.3c0-.6.3-1 .7-1 .2 0 .3-.2.3-.3s0-.4-.2-.4c-.4 0-.7-.5-.7-1 0-.2-.2-.3-.3-.3s-.3.2-.3.3c0 .6-.3 1-.7 1-.2 0-.4.2-.4.4zm.1-31c.4 0 .8-.5.8-1.1 0-.2.2-.4.4-.4s.4.2.4.4c0 .6.3 1.1.8 1.1.2 0 .4.2.4.4s-.2.4-.4.4c-.4 0-.8.5-.8 1.1 0 .2-.2.4-.4.4s-.4-.2-.4-.4c0-.6-.3-1.1-.8-1.1-.2 0-.4-.2-.4-.4s.2-.4.4-.4z"/></g></switch></svg>