<?xml version="1.0" standalone="no"?>
<!DOCTYPE svg PUBLIC "-//W3C//DTD SVG 1.1//EN" "http://www.w3.org/Graphics/SVG/1.1/DTD/svg11.dtd">
<svg t="1694265612263"  viewBox="-200 -260 1400 1400" version="1.1" xmlns="http://www.w3.org/2000/svg" p-id="4287" xmlns:xlink="http://www.w3.org/1999/xlink" width="64" height="64"><path d="M1023.998976 695.428688l0 119.428452-366.856776 0 0-119.428452 76.571352 0 0-529.142328-3.428568 0-179.428392 648.57078-138.857004 0-177.14268-648.57078-4.571424 0 0 529.142328 77.14278 0 0 119.428452-307.428264 0 0-119.428452 39.428532 0q11.999988 0 24.571404-11.142846t12.571416-21.42855l0-503.428068q0-10.285704-12.571416-22.85712t-24.571404-12.571416l-39.428532 0 0-119.428452 383.999616 0 126.285588 469.142388 3.428568 0 127.428444-469.142388 382.85676 0 0 119.428452-40.571388 0q-10.857132 0-23.428548 12.571416t-12.571416 22.85712l0 503.428068q0 10.285704 12.285702 21.42855t23.714262 11.142846l40.571388 0z" p-id="4288" fill="#fff"></path></svg>